<svg width="158" height="24" viewBox="0 0 158 24" fill="none" xmlns="http://www.w3.org/2000/svg">
<path d="M0.505406 18.8106C0.177327 19.2437 1.19253 19.9691 4.82187 21.9154C8.66504 23.9732 9.5877 24.2873 9.78054 23.6645C10.0352 22.8049 1.05402 18.1237 0.505406 18.8106Z" fill="#171717"/>
<path d="M8.19432 1.16303C6.83159 0.276124 6.50432 0.395689 3.66835 2.80864C0.736575 5.2978 0.289638 5.85685 0.710609 6.4449C1.47828 7.50803 2.46592 7.0977 6.24574 4.1997C9.03319 2.06003 9.20015 1.81765 8.19432 1.16303Z" fill="#171717"/>
<path d="M12.6787 10.7515C11.7073 10.1008 11.2237 10.0632 9.31262 10.4731C3.64826 11.7103 -0.495975 12.1448 1.4203 13.3735C2.19901 13.8803 3.27576 13.7589 9.94956 12.5319C13.6356 11.8362 13.9727 11.6306 12.6787 10.7515Z" fill="#171717"/>
<path d="M37.837 6.15039L34.4005 19H32.8976L30.3488 10.3516C30.2726 10.1055 30.1993 9.85938 30.129 9.61328C30.0646 9.36133 30.0031 9.12402 29.9445 8.90137C29.8859 8.67285 29.8361 8.47363 29.795 8.30371C29.7599 8.12793 29.7335 7.99609 29.7159 7.9082C29.7042 7.99609 29.6808 8.125 29.6456 8.29492C29.6163 8.46484 29.5753 8.66113 29.5226 8.88379C29.4757 9.10645 29.4171 9.34375 29.3468 9.5957C29.2823 9.84766 29.212 10.1025 29.1359 10.3604L26.6573 19H25.1544L21.7443 6.15039H23.2999L25.3654 14.21C25.4357 14.4795 25.5001 14.7461 25.5587 15.0098C25.6232 15.2676 25.6788 15.5195 25.7257 15.7656C25.7784 16.0117 25.8253 16.252 25.8663 16.4863C25.9073 16.7207 25.9454 16.9492 25.9806 17.1719C26.0099 16.9434 26.048 16.7061 26.0948 16.46C26.1417 16.208 26.1915 15.9531 26.2443 15.6953C26.3029 15.4375 26.3644 15.1768 26.4288 14.9131C26.4991 14.6494 26.5724 14.3857 26.6486 14.1221L28.9601 6.15039H30.4982L32.9064 14.1836C32.9884 14.459 33.0646 14.7314 33.1349 15.001C33.2052 15.2705 33.2667 15.5342 33.3195 15.792C33.3781 16.0439 33.4279 16.2871 33.4689 16.5215C33.5157 16.75 33.5568 16.9668 33.5919 17.1719C33.6329 16.8848 33.6827 16.583 33.7413 16.2666C33.7999 15.9502 33.8673 15.6191 33.9435 15.2734C34.0255 14.9277 34.1134 14.5703 34.2072 14.2012L36.2726 6.15039H37.837ZM51.0118 12.5576C51.0118 13.5479 50.8859 14.4502 50.6339 15.2646C50.382 16.0732 50.007 16.7705 49.5089 17.3564C49.0167 17.9365 48.4044 18.3848 47.672 18.7012C46.9396 19.0176 46.09 19.1758 45.1232 19.1758C44.1271 19.1758 43.257 19.0176 42.5128 18.7012C41.7745 18.3848 41.1593 17.9336 40.6671 17.3477C40.1808 16.7617 39.8146 16.0615 39.5685 15.2471C39.3282 14.4326 39.2081 13.5303 39.2081 12.54C39.2081 11.2275 39.4249 10.0762 39.8585 9.08594C40.2921 8.0957 40.9484 7.3252 41.8273 6.77441C42.712 6.22363 43.8195 5.94824 45.1495 5.94824C46.421 5.94824 47.4904 6.2207 48.3575 6.76562C49.2306 7.31055 49.8898 8.07812 50.3351 9.06836C50.7863 10.0527 51.0118 11.2158 51.0118 12.5576ZM40.7814 12.5576C40.7814 13.6475 40.9366 14.5908 41.2472 15.3877C41.5577 16.1846 42.0323 16.7998 42.671 17.2334C43.3156 17.667 44.1329 17.8838 45.1232 17.8838C46.1193 17.8838 46.9337 17.667 47.5665 17.2334C48.2052 16.7998 48.6769 16.1846 48.9816 15.3877C49.2863 14.5908 49.4386 13.6475 49.4386 12.5576C49.4386 10.8994 49.09 9.60449 48.3927 8.67285C47.7013 7.73535 46.6202 7.2666 45.1495 7.2666C44.1534 7.2666 43.3331 7.48047 42.6886 7.9082C42.0441 8.33594 41.5636 8.94531 41.2472 9.73633C40.9366 10.5215 40.7814 11.4619 40.7814 12.5576ZM57.3488 6.15039C58.4034 6.15039 59.2736 6.28223 59.9591 6.5459C60.6505 6.80371 61.1661 7.19922 61.506 7.73242C61.8458 8.26562 62.0157 8.94531 62.0157 9.77148C62.0157 10.4512 61.8927 11.0195 61.6466 11.4766C61.4005 11.9277 61.0782 12.2939 60.6798 12.5752C60.2814 12.8564 59.8566 13.0732 59.4054 13.2256L62.9298 19H61.1896L58.0431 13.6387H55.3712V19H53.8771V6.15039H57.3488ZM57.2609 7.44238H55.3712V12.373H57.4103C58.4591 12.373 59.2296 12.1592 59.7218 11.7314C60.2198 11.3037 60.4689 10.6738 60.4689 9.8418C60.4689 8.96875 60.2052 8.35059 59.6779 7.9873C59.1564 7.62402 58.3507 7.44238 57.2609 7.44238ZM74.2501 19H72.4835L67.8517 12.751L66.4806 13.9814V19H64.9865V6.15039H66.4806V12.5576C66.8146 12.1768 67.1573 11.7988 67.5089 11.4238C67.8605 11.043 68.2091 10.6592 68.5548 10.2725L72.3077 6.15039H74.0568L68.9415 11.7227L74.2501 19ZM83.1622 19H76.0079V6.15039H83.1622V7.46875H77.5021V11.626H82.837V12.9268H77.5021V17.6816H83.1622V19ZM96.214 12.4521C96.214 13.8994 95.9503 15.1094 95.423 16.082C94.8956 17.0488 94.131 17.7783 93.129 18.2705C92.1329 18.7568 90.923 19 89.4991 19H86.0099V6.15039H89.8859C91.1925 6.15039 92.3175 6.39062 93.2609 6.87109C94.2042 7.3457 94.9308 8.05176 95.4406 8.98926C95.9562 9.9209 96.214 11.0752 96.214 12.4521ZM94.6407 12.5049C94.6407 11.3506 94.4474 10.3984 94.0607 9.64844C93.6798 8.89844 93.1173 8.3418 92.3732 7.97852C91.6349 7.60938 90.7296 7.4248 89.6573 7.4248H87.504V17.7168H89.3234C91.0929 17.7168 92.42 17.2803 93.3048 16.4072C94.1954 15.5342 94.6407 14.2334 94.6407 12.5049ZM105.24 19H103.746V6.15039H110.901V7.46875H105.24V12.1797H110.558V13.4893H105.24V19ZM124.19 12.5576C124.19 13.5479 124.064 14.4502 123.812 15.2646C123.56 16.0732 123.185 16.7705 122.687 17.3564C122.194 17.9365 121.582 18.3848 120.85 18.7012C120.117 19.0176 119.268 19.1758 118.301 19.1758C117.305 19.1758 116.435 19.0176 115.691 18.7012C114.952 18.3848 114.337 17.9336 113.845 17.3477C113.359 16.7617 112.992 16.0615 112.746 15.2471C112.506 14.4326 112.386 13.5303 112.386 12.54C112.386 11.2275 112.603 10.0762 113.036 9.08594C113.47 8.0957 114.126 7.3252 115.005 6.77441C115.89 6.22363 116.997 5.94824 118.327 5.94824C119.599 5.94824 120.668 6.2207 121.535 6.76562C122.408 7.31055 123.068 8.07812 123.513 9.06836C123.964 10.0527 124.19 11.2158 124.19 12.5576ZM113.959 12.5576C113.959 13.6475 114.114 14.5908 114.425 15.3877C114.735 16.1846 115.21 16.7998 115.849 17.2334C116.493 17.667 117.311 17.8838 118.301 17.8838C119.297 17.8838 120.111 17.667 120.744 17.2334C121.383 16.7998 121.855 16.1846 122.159 15.3877C122.464 14.5908 122.616 13.6475 122.616 12.5576C122.616 10.8994 122.268 9.60449 121.57 8.67285C120.879 7.73535 119.798 7.2666 118.327 7.2666C117.331 7.2666 116.511 7.48047 115.866 7.9082C115.222 8.33594 114.741 8.94531 114.425 9.73633C114.114 10.5215 113.959 11.4619 113.959 12.5576ZM130.526 6.15039C131.581 6.15039 132.451 6.28223 133.137 6.5459C133.828 6.80371 134.344 7.19922 134.684 7.73242C135.024 8.26562 135.193 8.94531 135.193 9.77148C135.193 10.4512 135.07 11.0195 134.824 11.4766C134.578 11.9277 134.256 12.2939 133.858 12.5752C133.459 12.8564 133.034 13.0732 132.583 13.2256L136.108 19H134.367L131.221 13.6387H128.549V19H127.055V6.15039H130.526ZM130.439 7.44238H128.549V12.373H130.588C131.637 12.373 132.407 12.1592 132.9 11.7314C133.398 11.3037 133.647 10.6738 133.647 9.8418C133.647 8.96875 133.383 8.35059 132.856 7.9873C132.334 7.62402 131.528 7.44238 130.439 7.44238Z" fill="#171717"/>
</svg>
