<svg width="1344" height="136" viewBox="0 0 1344 136" fill="none" xmlns="http://www.w3.org/2000/svg">
<path d="M0.505406 18.8106C0.177327 19.2437 1.19253 19.9691 4.82187 21.9154C8.66504 23.9732 9.5877 24.2873 9.78054 23.6645C10.0352 22.8049 1.05402 18.1237 0.505406 18.8106Z" fill="#171717"/>
<path d="M8.19432 1.16303C6.83159 0.276124 6.50432 0.395689 3.66835 2.80864C0.736575 5.2978 0.289638 5.85685 0.710609 6.4449C1.47828 7.50803 2.46592 7.0977 6.24574 4.1997C9.03319 2.06003 9.20015 1.81765 8.19432 1.16303Z" fill="#171717"/>
<path d="M12.6787 10.7515C11.7073 10.1008 11.2237 10.0632 9.31262 10.4731C3.64826 11.7103 -0.495975 12.1448 1.4203 13.3735C2.19901 13.8803 3.27576 13.7589 9.94956 12.5319C13.6356 11.8362 13.9727 11.6306 12.6787 10.7515Z" fill="#171717"/>
<path d="M37.837 6.15039L34.4005 19H32.8976L30.3488 10.3516C30.2726 10.1055 30.1993 9.85938 30.129 9.61328C30.0646 9.36133 30.0031 9.12402 29.9445 8.90137C29.8859 8.67285 29.8361 8.47363 29.795 8.30371C29.7599 8.12793 29.7335 7.99609 29.7159 7.9082C29.7042 7.99609 29.6808 8.125 29.6456 8.29492C29.6163 8.46484 29.5753 8.66113 29.5226 8.88379C29.4757 9.10645 29.4171 9.34375 29.3468 9.5957C29.2823 9.84766 29.212 10.1025 29.1359 10.3604L26.6573 19H25.1544L21.7443 6.15039H23.2999L25.3654 14.21C25.4357 14.4795 25.5001 14.7461 25.5587 15.0098C25.6232 15.2676 25.6788 15.5195 25.7257 15.7656C25.7784 16.0117 25.8253 16.252 25.8663 16.4863C25.9073 16.7207 25.9454 16.9492 25.9806 17.1719C26.0099 16.9434 26.048 16.7061 26.0948 16.46C26.1417 16.208 26.1915 15.9531 26.2443 15.6953C26.3029 15.4375 26.3644 15.1768 26.4288 14.9131C26.4991 14.6494 26.5724 14.3857 26.6486 14.1221L28.9601 6.15039H30.4982L32.9064 14.1836C32.9884 14.459 33.0646 14.7314 33.1349 15.001C33.2052 15.2705 33.2667 15.5342 33.3195 15.792C33.3781 16.0439 33.4279 16.2871 33.4689 16.5215C33.5157 16.75 33.5568 16.9668 33.5919 17.1719C33.6329 16.8848 33.6827 16.583 33.7413 16.2666C33.7999 15.9502 33.8673 15.6191 33.9435 15.2734C34.0255 14.9277 34.1134 14.5703 34.2072 14.2012L36.2726 6.15039H37.837ZM51.0118 12.5576C51.0118 13.5479 50.8859 14.4502 50.6339 15.2646C50.382 16.0732 50.007 16.7705 49.5089 17.3564C49.0167 17.9365 48.4044 18.3848 47.672 18.7012C46.9396 19.0176 46.09 19.1758 45.1232 19.1758C44.1271 19.1758 43.257 19.0176 42.5128 18.7012C41.7745 18.3848 41.1593 17.9336 40.6671 17.3477C40.1808 16.7617 39.8146 16.0615 39.5685 15.2471C39.3282 14.4326 39.2081 13.5303 39.2081 12.54C39.2081 11.2275 39.4249 10.0762 39.8585 9.08594C40.2921 8.0957 40.9484 7.3252 41.8273 6.77441C42.712 6.22363 43.8195 5.94824 45.1495 5.94824C46.421 5.94824 47.4904 6.2207 48.3575 6.76562C49.2306 7.31055 49.8898 8.07812 50.3351 9.06836C50.7863 10.0527 51.0118 11.2158 51.0118 12.5576ZM40.7814 12.5576C40.7814 13.6475 40.9366 14.5908 41.2472 15.3877C41.5577 16.1846 42.0323 16.7998 42.671 17.2334C43.3156 17.667 44.1329 17.8838 45.1232 17.8838C46.1193 17.8838 46.9337 17.667 47.5665 17.2334C48.2052 16.7998 48.6769 16.1846 48.9816 15.3877C49.2863 14.5908 49.4386 13.6475 49.4386 12.5576C49.4386 10.8994 49.09 9.60449 48.3927 8.67285C47.7013 7.73535 46.6202 7.2666 45.1495 7.2666C44.1534 7.2666 43.3331 7.48047 42.6886 7.9082C42.0441 8.33594 41.5636 8.94531 41.2472 9.73633C40.9366 10.5215 40.7814 11.4619 40.7814 12.5576ZM57.3488 6.15039C58.4034 6.15039 59.2736 6.28223 59.9591 6.5459C60.6505 6.80371 61.1661 7.19922 61.506 7.73242C61.8458 8.26562 62.0157 8.94531 62.0157 9.77148C62.0157 10.4512 61.8927 11.0195 61.6466 11.4766C61.4005 11.9277 61.0782 12.2939 60.6798 12.5752C60.2814 12.8564 59.8566 13.0732 59.4054 13.2256L62.9298 19H61.1896L58.0431 13.6387H55.3712V19H53.8771V6.15039H57.3488ZM57.2609 7.44238H55.3712V12.373H57.4103C58.4591 12.373 59.2296 12.1592 59.7218 11.7314C60.2198 11.3037 60.4689 10.6738 60.4689 9.8418C60.4689 8.96875 60.2052 8.35059 59.6779 7.9873C59.1564 7.62402 58.3507 7.44238 57.2609 7.44238ZM74.2501 19H72.4835L67.8517 12.751L66.4806 13.9814V19H64.9865V6.15039H66.4806V12.5576C66.8146 12.1768 67.1573 11.7988 67.5089 11.4238C67.8605 11.043 68.2091 10.6592 68.5548 10.2725L72.3077 6.15039H74.0568L68.9415 11.7227L74.2501 19ZM83.1622 19H76.0079V6.15039H83.1622V7.46875H77.5021V11.626H82.837V12.9268H77.5021V17.6816H83.1622V19ZM96.214 12.4521C96.214 13.8994 95.9503 15.1094 95.423 16.082C94.8956 17.0488 94.131 17.7783 93.129 18.2705C92.1329 18.7568 90.923 19 89.4991 19H86.0099V6.15039H89.8859C91.1925 6.15039 92.3175 6.39062 93.2609 6.87109C94.2042 7.3457 94.9308 8.05176 95.4406 8.98926C95.9562 9.9209 96.214 11.0752 96.214 12.4521ZM94.6407 12.5049C94.6407 11.3506 94.4474 10.3984 94.0607 9.64844C93.6798 8.89844 93.1173 8.3418 92.3732 7.97852C91.6349 7.60938 90.7296 7.4248 89.6573 7.4248H87.504V17.7168H89.3234C91.0929 17.7168 92.42 17.2803 93.3048 16.4072C94.1954 15.5342 94.6407 14.2334 94.6407 12.5049ZM105.24 19H103.746V6.15039H110.901V7.46875H105.24V12.1797H110.558V13.4893H105.24V19ZM124.19 12.5576C124.19 13.5479 124.064 14.4502 123.812 15.2646C123.56 16.0732 123.185 16.7705 122.687 17.3564C122.194 17.9365 121.582 18.3848 120.85 18.7012C120.117 19.0176 119.268 19.1758 118.301 19.1758C117.305 19.1758 116.435 19.0176 115.691 18.7012C114.952 18.3848 114.337 17.9336 113.845 17.3477C113.359 16.7617 112.992 16.0615 112.746 15.2471C112.506 14.4326 112.386 13.5303 112.386 12.54C112.386 11.2275 112.603 10.0762 113.036 9.08594C113.47 8.0957 114.126 7.3252 115.005 6.77441C115.89 6.22363 116.997 5.94824 118.327 5.94824C119.599 5.94824 120.668 6.2207 121.535 6.76562C122.408 7.31055 123.068 8.07812 123.513 9.06836C123.964 10.0527 124.19 11.2158 124.19 12.5576ZM113.959 12.5576C113.959 13.6475 114.114 14.5908 114.425 15.3877C114.735 16.1846 115.21 16.7998 115.849 17.2334C116.493 17.667 117.311 17.8838 118.301 17.8838C119.297 17.8838 120.111 17.667 120.744 17.2334C121.383 16.7998 121.855 16.1846 122.159 15.3877C122.464 14.5908 122.616 13.6475 122.616 12.5576C122.616 10.8994 122.268 9.60449 121.57 8.67285C120.879 7.73535 119.798 7.2666 118.327 7.2666C117.331 7.2666 116.511 7.48047 115.866 7.9082C115.222 8.33594 114.741 8.94531 114.425 9.73633C114.114 10.5215 113.959 11.4619 113.959 12.5576ZM130.526 6.15039C131.581 6.15039 132.451 6.28223 133.137 6.5459C133.828 6.80371 134.344 7.19922 134.684 7.73242C135.024 8.26562 135.193 8.94531 135.193 9.77148C135.193 10.4512 135.07 11.0195 134.824 11.4766C134.578 11.9277 134.256 12.2939 133.858 12.5752C133.459 12.8564 133.034 13.0732 132.583 13.2256L136.108 19H134.367L131.221 13.6387H128.549V19H127.055V6.15039H130.526ZM130.439 7.44238H128.549V12.373H130.588C131.637 12.373 132.407 12.1592 132.9 11.7314C133.398 11.3037 133.647 10.6738 133.647 9.8418C133.647 8.96875 133.383 8.35059 132.856 7.9873C132.334 7.62402 131.528 7.44238 130.439 7.44238Z" fill="#171717"/>
<rect width="204" height="72" transform="translate(0 64)" fill="#FAFAFA"/>
<g clip-path="url(#clip0_115_507)">
<mask id="mask0_115_507" style="mask-type:luminance" maskUnits="userSpaceOnUse" x="81" y="82" width="43" height="36">
<path d="M81.3439 117.668H123.776V82.2974H81.3439V117.668Z" fill="white"/>
</mask>
<g mask="url(#mask0_115_507)">
<path d="M121.664 105.824C121.865 106.113 121.783 106.499 121.481 106.68C121.481 106.68 117.323 109.193 114.318 110.263C111.323 111.329 108.41 111.937 105.895 112.101C103.378 112.264 100.465 112.873 97.4706 113.938C94.4653 115.008 90.3074 117.52 90.3074 117.52C90.0062 117.703 89.5947 117.615 89.3936 117.326C89.3936 117.326 87.3676 114.414 86.5654 112.16C85.7661 109.914 85.4051 107.696 85.4446 105.751C85.4836 103.806 85.1231 101.588 84.3233 99.3412C83.5211 97.0876 81.4956 94.1757 81.4956 94.1757C81.294 93.8865 81.3763 93.501 81.678 93.3191C81.678 93.3191 85.8358 90.8071 88.8406 89.7373C91.8358 88.6709 94.7487 88.0631 97.2646 87.899C99.781 87.7349 102.694 87.1271 105.689 86.0612C108.694 84.9914 112.852 82.4793 112.852 82.4793C113.153 82.2974 113.564 82.385 113.766 82.6738C113.766 82.6738 115.792 85.5857 116.594 87.8393C117.393 90.0857 117.754 92.3042 117.715 94.2488C117.675 96.1935 118.036 98.4125 118.836 100.658C119.638 102.912 121.664 105.824 121.664 105.824Z" fill="#171717"/>
<path d="M93.0495 98.9778L89.522 98.9841L89.5269 101.542C89.5273 101.955 89.5827 102.227 89.6929 102.356C89.8031 102.486 90.0331 102.551 90.383 102.55L90.458 102.55L90.4585 102.859L87.5904 102.865L87.5899 102.555H87.6698C88.0196 102.554 88.2482 102.49 88.3565 102.361C88.4648 102.233 88.5182 101.961 88.5177 101.544L88.5086 96.4278C88.5076 96.0149 88.4532 95.7444 88.3445 95.6164C88.2362 95.4884 88.0071 95.4244 87.6573 95.4254H87.5774L87.5769 95.1107L90.4446 95.1054L90.445 95.4201H90.37C90.0206 95.4211 89.7906 95.4855 89.6809 95.614C89.5711 95.7425 89.5167 96.013 89.5177 96.4259L89.5216 98.5996L93.0485 98.5933L93.0451 96.4196C93.0442 96.0067 92.9888 95.7363 92.8786 95.6082C92.7684 95.4802 92.5384 95.4162 92.1885 95.4172H92.114L92.1135 95.1025L94.9811 95.0972L94.9816 95.4119L94.9017 95.4124C94.5519 95.4129 94.3233 95.4774 94.215 95.6058C94.1072 95.7343 94.0533 96.0053 94.0543 96.4182L94.0634 101.534C94.0639 101.95 94.1183 102.223 94.227 102.351C94.3353 102.479 94.5649 102.542 94.9142 102.542H94.9941L94.9951 102.851L92.127 102.857L92.1265 102.547H92.2015C92.5514 102.546 92.7809 102.481 92.8907 102.351C93.0004 102.22 93.0548 101.949 93.0538 101.536L93.0495 98.9778Z" fill="#FAFAFA"/>
<path d="M98.1029 101.897C97.7873 102.247 97.4427 102.423 97.0697 102.423C96.8464 102.424 96.6525 102.335 96.487 102.159C96.3219 101.983 96.2391 101.775 96.2386 101.535C96.2382 101.169 96.3585 100.888 96.5996 100.693C96.8407 100.498 97.3474 100.278 98.1198 100.033L98.4042 99.9428L98.4061 100.942C98.4066 101.348 98.3055 101.667 98.1029 101.897ZM98.8161 102.715C98.985 102.904 99.2093 102.999 99.4889 102.998C99.8118 102.998 100.137 102.906 100.462 102.722L100.462 102.427C100.342 102.444 100.232 102.452 100.132 102.452C99.8161 102.453 99.6039 102.354 99.4975 102.154C99.3902 101.954 99.3363 101.553 99.3354 100.95L99.331 98.5819C99.3301 98.0626 99.2045 97.6863 98.9542 97.4534C98.704 97.2243 98.2974 97.1098 97.7348 97.1107C97.0553 97.1122 96.4874 97.2878 96.0322 97.6386C95.5693 97.9991 95.3387 98.3793 95.3397 98.7792V98.9288L96.4133 98.5823L96.4129 98.3321C96.4124 98.0694 96.4884 97.8725 96.6419 97.7426C96.7945 97.6122 97.0245 97.5467 97.331 97.5463C97.627 97.5458 97.8772 97.6204 98.0808 97.7695C98.2141 97.8629 98.3007 97.977 98.3411 98.1117C98.3811 98.2464 98.4018 98.4856 98.4023 98.8287L98.4037 99.6127L97.7194 99.8138C96.8306 100.069 96.1934 100.342 95.8075 100.634C95.4215 100.926 95.229 101.281 95.23 101.697C95.2305 102.073 95.3522 102.386 95.5962 102.633C95.8397 102.881 96.1448 103.004 96.511 103.004C96.8772 103.003 97.2242 102.908 97.5524 102.717C97.8801 102.527 98.19 102.241 98.4826 101.861C98.5365 102.241 98.6477 102.525 98.8161 102.715Z" fill="#FAFAFA"/>
<path d="M102.131 98.5721L102.136 101.52C102.137 101.936 102.193 102.208 102.305 102.336C102.417 102.465 102.651 102.528 103.007 102.527H103.072L103.073 102.837L100.28 102.842L100.279 102.533L100.369 102.532C100.712 102.532 100.938 102.467 101.046 102.339C101.154 102.21 101.207 101.938 101.207 101.522L101.203 99.2732C101.202 98.8136 101.168 98.5187 101.101 98.3892C101.035 98.2593 100.853 98.1313 100.556 98.0052L100.271 97.881V97.8059L102.128 97.1082L102.13 98.2622C102.529 97.8752 102.908 97.5851 103.266 97.3911C103.623 97.1972 103.959 97.1 104.272 97.0995C104.725 97.0985 105.1 97.253 105.396 97.562C105.7 97.8781 105.853 98.4542 105.854 99.2901L105.858 101.513C105.859 101.93 105.914 102.202 106.024 102.33C106.135 102.458 106.366 102.522 106.719 102.521L106.789 102.521L106.79 102.83L104.002 102.835L104.001 102.526L104.081 102.525C104.431 102.525 104.66 102.459 104.768 102.33C104.876 102.2 104.93 101.928 104.929 101.515L104.925 99.2713C104.924 98.7785 104.843 98.4224 104.681 98.203C104.519 97.983 104.255 97.8738 103.888 97.8743C103.622 97.8748 103.342 97.933 103.049 98.0485C102.756 98.1635 102.45 98.3382 102.131 98.5721Z" fill="#FAFAFA"/>
<path d="M108.27 97.9793C108.557 97.5943 108.911 97.4008 109.33 97.4003C109.67 97.3999 109.948 97.5375 110.165 97.8132C110.382 98.0895 110.492 98.4461 110.492 98.8821C110.493 99.1655 110.394 99.3445 110.196 99.4196C109.998 99.4951 109.526 99.5332 108.78 99.5346L107.745 99.5365C107.807 98.8835 107.982 98.3642 108.27 97.9793ZM109.864 102.36C109.258 102.361 108.749 102.144 108.339 101.706C107.928 101.269 107.723 100.727 107.721 100.081C107.721 100.038 107.723 99.9595 107.726 99.8464L111.553 99.8397L111.553 99.6795C111.551 98.8638 111.358 98.2276 110.972 97.7719C110.587 97.3166 110.047 97.089 109.355 97.0904C108.585 97.0919 107.945 97.3729 107.435 97.9331C106.925 98.4937 106.671 99.1968 106.672 100.043C106.673 100.899 106.941 101.603 107.475 102.155C108.009 102.707 108.689 102.982 109.515 102.981C110.201 102.979 110.909 102.77 111.637 102.352L111.636 101.883C111.034 102.2 110.443 102.359 109.864 102.36Z" fill="#FAFAFA"/>
<path d="M112.204 102.601L112.082 101.193L112.481 101.192L112.497 101.292C112.642 102.207 113.112 102.665 113.908 102.663C114.251 102.663 114.545 102.554 114.792 102.339C115.038 102.124 115.16 101.866 115.16 101.567C115.16 101.38 115.096 101.216 114.969 101.072C114.842 100.933 114.536 100.732 114.049 100.469L113.574 100.21C112.667 99.7161 112.213 99.1637 112.212 98.5545C112.211 98.1011 112.377 97.7431 112.71 97.4794C113.043 97.2157 113.493 97.0828 114.063 97.0819C114.546 97.0809 115.076 97.1853 115.652 97.3942L115.654 98.553L115.255 98.554L115.239 98.4592C115.216 98.2989 115.184 98.1618 115.144 98.0468C115.104 97.9322 115.046 97.8307 114.971 97.7426C114.896 97.6545 114.79 97.5737 114.653 97.5006C114.517 97.4279 114.315 97.3913 114.049 97.3918C113.769 97.3923 113.54 97.4736 113.362 97.6353C113.184 97.7975 113.095 98.0049 113.096 98.258C113.096 98.6276 113.448 99.0068 114.152 99.3952L114.677 99.6839C115.19 99.9664 115.546 100.227 115.743 100.466C115.936 100.709 116.033 101.005 116.034 101.355C116.035 101.842 115.841 102.233 115.452 102.528C115.062 102.823 114.548 102.972 113.909 102.973C113.236 102.974 112.668 102.85 112.204 102.601Z" fill="#FAFAFA"/>
<path fill-rule="evenodd" clip-rule="evenodd" d="M117.195 84.6404C117.66 84.6404 118.057 84.2795 118.057 83.7852C118.057 83.2958 117.66 82.9344 117.195 82.9344C116.726 82.9344 116.328 83.2958 116.328 83.7852C116.328 84.2795 116.726 84.6404 117.195 84.6404ZM116.5 83.7852C116.5 83.3815 116.804 83.0769 117.195 83.0769C117.581 83.0769 117.885 83.3815 117.885 83.7852C117.885 84.1957 117.581 84.4984 117.195 84.4984C116.804 84.4984 116.5 84.1957 116.5 83.7852ZM117.014 83.8531H117.186L117.445 84.2795H117.612L117.332 83.8463C117.477 83.8281 117.587 83.7515 117.587 83.5754C117.587 83.3815 117.472 83.2958 117.24 83.2958H116.865V84.2795H117.014V83.8531ZM117.014 83.7265V83.4219H117.217C117.321 83.4219 117.431 83.4445 117.431 83.5663C117.431 83.7174 117.319 83.7265 117.192 83.7265H117.014Z" fill="#171717"/>
</g>
</g>
<rect width="204" height="72" transform="translate(228 64)" fill="#FAFAFA"/>
<path d="M285 82V118H375V82H285ZM330.008 116.2C304.905 116.2 286.8 108.85 286.8 100C286.8 91.15 304.916 83.8 330.008 83.8C355.095 83.8 373.2 91.15 373.2 100C373.2 108.85 355.11 116.2 330.008 116.2ZM329.164 93.4675H344.824V97.0825C344.438 96.9063 344.063 96.9063 343.676 96.9063H337.084V98.6313H343.418V101.376H337.084V103.09H343.676C344.063 103.09 344.438 103.09 344.824 102.903V106.529H329.164C329.359 106.15 329.359 105.786 329.359 105.408V94.6C329.359 94.2213 329.359 93.8575 329.164 93.4675ZM302.629 94.6V105.404C302.629 105.783 302.629 106.146 302.824 106.525H294C294.195 106.146 294.195 105.783 294.195 105.404V94.6C294.195 94.2213 294.195 93.8575 294 93.4788H302.824C302.629 93.8575 302.629 94.2213 302.629 94.6ZM326.805 105.404C327.09 105.805 327.398 106.184 327.761 106.525H318.019C318.019 106.146 317.644 105.378 317.231 104.774C316.819 104.17 314.588 100.859 314.588 100.859V105.404C314.588 105.783 314.588 106.146 314.783 106.525H306.668C306.863 106.146 306.863 105.783 306.863 105.404V94.6C306.863 94.2213 306.863 93.8575 306.668 93.4788H314.783C314.588 93.8575 314.588 94.2213 314.588 94.6V99.3213C314.588 99.3213 317.179 96.0213 317.775 95.2525C318.225 94.675 318.78 93.8538 318.78 93.4788H327.244C326.663 93.8575 326.018 94.5363 325.489 95.1663L322.391 98.8563C322.391 98.8563 326.288 104.661 326.805 105.404ZM366.353 94.135C366.353 93.9599 366.284 93.7918 366.161 93.6669C366.038 93.5421 365.871 93.4705 365.696 93.4675H364.909V95.5338H365.22V94.8025H365.67L366.083 95.5338H366.431L365.981 94.7388C366.092 94.6811 366.185 94.5945 366.25 94.4882C366.316 94.3819 366.351 94.2598 366.353 94.135ZM365.644 94.5138H365.216V93.7975H365.681C365.888 93.7975 366.03 93.9738 366.03 94.1762C366.03 94.375 365.85 94.525 365.644 94.5138ZM365.565 92.8H365.449C365.228 92.8034 365.01 92.8506 364.808 92.9388C364.606 93.0271 364.423 93.1546 364.271 93.3141C364.118 93.4736 363.999 93.6617 363.92 93.8677C363.841 94.0736 363.804 94.2932 363.81 94.5138C363.81 94.54 363.81 94.5775 363.799 94.6C363.817 95.0616 364.018 95.497 364.357 95.8111C364.695 96.1253 365.145 96.2925 365.606 96.2763C365.835 96.2733 366.06 96.2254 366.27 96.1352C366.48 96.0451 366.671 95.9144 366.83 95.7507C366.99 95.5871 367.115 95.3936 367.2 95.1814C367.285 94.9691 367.327 94.7423 367.324 94.5138V94.45C367.317 94.2261 367.266 94.0057 367.174 93.8015C367.082 93.5972 366.95 93.4132 366.787 93.2599C366.624 93.1066 366.431 92.9871 366.222 92.9082C366.012 92.8293 365.789 92.7925 365.565 92.8ZM365.565 95.8863C365.197 95.8893 364.843 95.7467 364.579 95.4896C364.316 95.2325 364.165 94.8818 364.159 94.5138V94.4125C364.167 94.2366 364.211 94.0642 364.286 93.905C364.361 93.7459 364.467 93.6032 364.598 93.4851C364.729 93.367 364.881 93.2759 365.047 93.2169C365.213 93.1579 365.389 93.1322 365.565 93.1412C366.338 93.1412 366.971 93.76 366.971 94.5138C366.971 95.2675 366.341 95.8863 365.565 95.8863ZM362.276 94.615C362.134 94.2363 361.928 93.8725 362.033 93.4938H350.719C350.771 93.8725 350.629 94.2363 350.486 94.615L346.474 105.419C346.349 105.83 346.142 106.211 345.866 106.54H352.56C352.508 106.161 352.65 105.798 352.778 105.419C352.905 105.04 353.048 104.676 353.048 104.676L353.126 104.474H358.016L358.095 104.661C358.275 105.104 358.406 105.404 358.406 105.404C358.56 105.783 358.703 106.146 358.665 106.525H367.151C366.865 106.199 366.649 105.817 366.518 105.404C365.112 101.804 363.698 98.2081 362.276 94.615ZM354.15 101.714C354.731 100.139 355.234 98.8188 355.271 98.6913C355.376 98.4138 355.451 98.125 355.504 97.8363C355.568 98.125 355.658 98.4138 355.763 98.6913L356.948 101.714H354.15Z" fill="#171717"/>
<rect width="204" height="72" transform="translate(456 64)" fill="#FAFAFA"/>
<path d="M536.618 94.285C533.809 100.777 526.798 106.796 522.006 106.891C520.755 106.914 520.519 106.843 520.023 106.371C519.717 106.064 519.339 105.451 519.221 104.955L518.985 104.081L517.993 104.813C515.845 106.348 513.012 107.268 511.927 106.82C510.605 106.253 510.439 104.412 511.407 101.461C511.761 100.399 512.045 99.4783 512.045 99.3839C512.045 99.2894 511.691 99.3131 511.266 99.4075C510.203 99.6671 507.961 99.4311 506.757 98.8882C506.002 98.5577 505.86 98.4396 506.12 98.2744C506.285 98.1564 506.757 98.0856 507.182 98.0856C508.244 98.0856 510.18 97.5426 511.384 96.9289C513.083 96.0555 514.476 94.6391 516.199 91.9245L517.828 89.375H519.717C520.755 89.375 521.605 89.4222 521.605 89.5167C521.605 89.6111 520.92 90.815 520.141 92.2313C516.483 98.6049 514.759 102.972 515.727 103.326C516.27 103.538 517.474 102.807 518.961 101.438C520.212 100.257 520.614 99.6435 523.187 94.828L526.019 89.5167L527.955 89.4695C529.466 89.4222 529.867 89.4695 529.796 89.6819C529.749 89.8472 528.333 92.491 526.68 95.5833C524.249 100.163 523.682 101.367 523.682 102.075C523.682 102.523 523.8 103.043 523.918 103.184C525.193 104.459 529.537 100.541 531.779 96.1027C532.582 94.4739 533.384 91.7828 533.644 89.6583C534.092 86.0938 532.912 83.568 530.693 83.3792C530.056 83.332 530.127 83.1667 531.071 82.6238C532.747 81.6796 534.635 81.8212 536.004 82.9543C538.365 84.8663 538.601 89.6819 536.618 94.285ZM608.687 98.1092C609.206 97.1649 608.71 96.2207 607.837 96.4804C606.987 96.74 607.058 97.5662 608.096 99.5963C608.899 101.202 609.064 101.674 609.064 102.689C609.064 104.672 608.214 105.734 606.137 106.513C604.91 106.938 602.313 106.891 601.274 106.395C600.354 105.97 599.551 105.12 599.362 104.317C599.292 104.058 599.197 103.822 599.15 103.822C599.103 103.822 598.56 104.223 597.97 104.719C595.987 106.277 594.24 106.796 593.461 106.041C592.918 105.498 593.201 104.483 594.759 101.438C595.515 99.9268 596.105 98.5813 596.058 98.416C595.892 98.0147 595.019 98.3452 593.768 99.2895C592.918 99.8796 592.493 100.517 591.124 103.114L589.448 106.206H587.796C586.71 106.206 586.143 106.135 586.143 105.97C586.143 105.828 586.45 105.214 586.78 104.601C587.135 103.987 587.371 103.468 587.3 103.468C587.229 103.468 586.71 103.845 586.143 104.341C584.68 105.592 582.767 106.678 582.083 106.678C581.446 106.678 580.619 105.828 580.619 105.167C580.619 104.837 580.407 104.931 579.392 105.616C578.023 106.56 576.795 106.891 575.804 106.654C574.812 106.395 574.435 105.71 574.458 104.034V102.618L572.829 103.987C570.351 106.135 568.344 106.938 567.66 106.135C567.211 105.569 567.589 104.223 569.029 101.343C570.658 98.1328 570.634 97.7787 568.887 98.7937C567.188 99.7852 567.211 99.738 565.417 103.114L563.741 106.253H561.994C561.003 106.253 560.248 106.182 560.248 106.041C560.248 105.923 561.05 104.317 562.065 102.476C563.694 99.4547 564.166 98.18 563.718 98.2036C563.505 98.2036 561.522 99.3839 560.979 99.8324C560.743 100.045 559.799 101.556 558.902 103.232L557.25 106.253H555.574C554.653 106.253 553.898 106.206 553.898 106.135C553.898 106.064 554.346 105.191 554.889 104.152C555.432 103.114 556.683 100.871 557.627 99.1242L559.351 95.9374L561.074 95.8902C562.018 95.8666 562.797 95.9138 562.797 96.0083C562.797 96.1027 562.608 96.504 562.372 96.8817C562.136 97.2594 561.947 97.6134 561.947 97.6607C561.947 97.7079 562.703 97.3538 563.623 96.8817C565.771 95.7722 567.495 95.5361 567.896 96.2915C568.037 96.5512 568.085 97.0469 568.037 97.3774C567.99 97.7079 567.967 97.9911 568.014 97.9911C568.061 97.9911 568.557 97.7315 569.123 97.3774C571.342 96.0319 573.703 95.4889 574.293 96.1971C574.718 96.74 574.411 98.1092 573.254 100.47C572.664 101.697 572.216 102.665 572.31 102.665C572.499 102.665 575.639 100.139 577.385 98.5813C579.982 96.2915 582.366 95.3709 583.948 96.1027C584.349 96.2915 584.538 96.2915 584.727 96.1027C584.868 95.961 585.647 95.8666 586.615 95.8666H588.268L586.662 98.9118C585.152 101.839 584.514 103.255 584.821 103.255C584.892 103.255 585.813 102.618 586.875 101.792C588.881 100.257 589.637 99.3839 590.793 97.1649L591.502 95.843H593.178C595.019 95.843 595.09 95.9138 594.405 97.0233L593.98 97.7551L595.963 96.8108C598.3 95.6778 599.551 95.5361 600.071 96.3151C600.519 97.0233 600.212 98.18 598.749 100.989C598.064 102.287 597.497 103.444 597.45 103.562C597.261 103.987 598.371 103.161 599.48 102.004C601.038 100.375 602.502 99.7616 603.635 100.21C603.895 100.328 603.871 100.399 603.446 100.753C602.832 101.249 602.077 102.618 602.077 103.279C602.077 104.506 603.588 105.828 604.556 105.474C605.783 105.049 605.972 104.152 605.264 102.169C604.697 100.564 604.697 98.6521 605.264 97.5426C606.066 95.9374 608.403 95.1584 609.938 95.9374C611.472 96.7164 610.811 98.5813 608.97 98.5813C608.545 98.5105 608.498 98.4396 608.687 98.1092ZM582.319 97.7315C581.587 97.6843 581.398 97.7787 580.407 98.7937C578.684 100.541 577.503 103.373 578.377 103.727C578.896 103.94 579.109 103.869 579.935 103.279C581.068 102.476 581.823 101.532 582.579 99.9976C583.428 98.3216 583.381 97.8023 582.319 97.7315ZM555.692 99.5963C554.582 101.65 552.906 104.742 551.962 106.489C549.483 111.092 548.138 113.052 546.202 115.011C544.125 117.088 542.661 117.867 540.702 117.985C539.97 118.032 539.073 117.962 538.696 117.844C537.326 117.419 536.311 115.766 536.595 114.374C536.76 113.524 537.444 112.391 537.917 112.131C538.271 111.942 538.294 112.013 538.223 112.981C538.176 113.854 538.223 114.09 538.672 114.539C540.017 115.884 542.779 114.704 545.164 111.73C546.108 110.573 548.327 106.867 548.728 105.828C548.87 105.474 548.799 105.474 548.232 105.875C547.359 106.489 546.037 106.82 545.282 106.607C544.361 106.371 543.676 105.262 543.676 104.011V102.972L542.236 104.058C538.483 106.914 534.541 107.41 533.502 105.167C532.7 103.42 533.833 100.399 536.028 98.416C539.545 95.2293 544.432 94.5683 544.361 97.283C544.314 99.5255 541.387 101.981 537.917 102.736C536.972 102.948 536.878 102.996 537.067 103.35C537.444 104.058 539.073 103.893 540.914 102.972C542.166 102.358 543.063 101.65 545.258 99.4547C548.35 96.4568 549.578 95.6778 551.348 95.6778C551.915 95.6778 552.67 95.843 553.024 96.0319C553.638 96.3623 553.709 96.3623 553.945 96.0319C554.157 95.725 554.511 95.6778 555.928 95.725L557.627 95.7722L555.692 99.5963ZM537.303 100.847C537.421 100.847 537.893 100.706 538.436 100.517C539.593 100.116 540.962 98.959 540.962 98.3216C540.962 96.9997 538.79 97.6843 537.751 99.3131C537.138 100.281 536.972 100.847 537.303 100.847ZM551.49 97.7315C550.782 97.6843 550.593 97.7787 549.601 98.7937C548.421 100.021 547.335 101.886 547.335 102.807C547.335 103.987 548.279 104.105 549.601 103.114C550.451 102.476 551.089 101.626 552.033 99.9032C552.859 98.298 552.741 97.8259 551.49 97.7315Z" fill="#171717"/>
<rect width="204" height="72" transform="translate(684 64)" fill="#FAFAFA"/>
<path d="M711.31 96.109C711.091 95.9271 710.8 95.709 710.51 95.6362L710.037 104.873L712.364 98.4726C712.582 97.4908 712.037 96.6908 711.31 96.109Z" fill="#171717"/>
<path d="M707.491 95.5272L708.837 104.727L710.146 95.5272C709.382 95.2363 708.364 95.1999 707.491 95.5272Z" fill="#171717"/>
<path d="M706.364 96.109C705.637 96.7271 705.091 97.5271 705.31 98.4726L707.637 104.873L707.164 95.6362C706.873 95.709 706.582 95.8908 706.364 96.109Z" fill="#171717"/>
<path d="M701.709 96.9816C703.237 99.6725 704.837 102.545 706.364 105.127C705.819 102.873 705.273 99.1271 704.473 98.0725C703.564 96.7998 701.709 96.9816 701.709 96.9816Z" fill="#171717"/>
<path d="M698.982 98.3272L705.309 105.6L701.382 97.0181C700.364 97.0544 699.491 97.5635 698.982 98.3272Z" fill="#171717"/>
<path d="M712.182 100.291L711.128 105.273C712.473 102.945 713.819 100.654 715.128 98.3271C713.892 98.3999 712.619 98.8726 712.182 100.291Z" fill="#171717"/>
<path d="M715.491 98.3271L712.146 105.709L718.001 99.3453C717.346 98.6544 716.473 98.3271 715.491 98.3271Z" fill="#171717"/>
<path d="M698.146 101.6C700.219 103.163 702.255 104.8 704.328 106.363L698.764 98.5452C698.255 99.4543 698.11 100.472 698.146 101.6Z" fill="#171717"/>
<path d="M718.727 100.254C718.618 99.9999 718.473 99.7817 718.255 99.5999L713.2 106.473C715.2 104.982 717.127 103.454 719.055 101.963C719.091 101.345 719.018 100.763 718.727 100.254Z" fill="#171717"/>
<path d="M698.146 104.8L703.528 107.272C701.746 105.491 699.928 103.782 698.146 102.036V104.8Z" fill="#171717"/>
<path d="M719.091 104.982V102.473L714 107.382C715.746 106.545 717.346 105.782 719.091 104.982Z" fill="#171717"/>
<path d="M698.146 107.236C699.782 107.6 701.528 108.036 702.982 108.363L698.146 105.163V107.236Z" fill="#171717"/>
<path d="M719.091 107.382V105.454C717.564 106.4 716 107.418 714.582 108.4L719.091 107.382Z" fill="#171717"/>
<path d="M698.146 109.636H702.873L698.146 107.636V109.636Z" fill="#171717"/>
<path d="M719.091 109.636V107.818C717.528 108.473 716.182 109.018 714.728 109.636H719.091Z" fill="#171717"/>
<path d="M717.455 95.8545C717.491 93.0181 713.346 93.0181 713.419 95.8181C713.382 98.4363 717.564 98.5818 717.455 95.8545Z" fill="#171717"/>
<path d="M703.928 94.3998C704.073 91.5634 699.637 91.6725 699.819 94.3998C699.673 97.2362 704.182 97.2725 703.928 94.3998Z" fill="#171717"/>
<path d="M708.837 94.9453C710.473 94.9816 711.128 93.7816 711.164 92.6544C711.237 90.9089 710.146 90.1816 708.837 90.1816C707.528 90.1816 706.473 90.9453 706.546 92.6544C706.582 93.6362 706.982 94.9089 708.837 94.9453Z" fill="#171717"/>
<path d="M743.673 98.4727H745.601V109.527H743.673V98.4727Z" fill="#171717"/>
<path d="M736.873 98.4727L733.6 107.854L730.4 103.854L734.655 98.4727H732.437L728.51 103.709V98.4727H726.582V109.527H728.51V104.073L732.582 109.527H733.019H734.91L735.928 106.327H740L741.055 109.527H743.055L739.2 98.4727H736.873ZM736.4 104.8L737.891 100.218H737.928L739.455 104.8H736.4Z" fill="#171717"/>
<path d="M808.073 106.473L806.146 98.4727H802.764V109.527H804.655V100.109L807.091 109.527H809.019C809.055 109.527 811.455 100.109 811.455 100.109V109.527H813.346V98.4727H810.037L808.073 106.473Z" fill="#171717"/>
<path d="M818.182 98.4727L814.328 109.564H816.219L817.237 106.364H821.346L822.437 109.564H824.437L820.582 98.4727H818.182ZM817.746 104.8L819.237 100.218H819.273L820.837 104.8H817.746Z" fill="#171717"/>
<path d="M832.255 107.018L827.819 98.4727H825.273V109.527H827.091V101.2L831.455 109.527H834.073V98.4727H832.219V107.018" fill="#171717"/>
<path d="M868.728 107.927H864.146V104.8H867.528V103.2H864.146V100.073C864.582 100.073 868.328 100.073 868.328 100.073V98.4727C867.201 98.4727 862.219 98.4727 862.219 98.4727V109.564H868.691L868.728 107.927Z" fill="#171717"/>
<path d="M851.164 98.4363H850.801V107.091L846.364 98.4726H843.819V107.927H837.964V104.8H841.346V103.2H837.964V100.073C838.401 100.073 842.146 100.073 842.146 100.073V98.4726C841.019 98.4726 836.073 98.4726 836.073 98.4726V109.564H845.491H845.637V101.091L850.001 109.527H852.619V100.145H856.001V109.564H857.928V100.145H861.237V98.4726H851.164" fill="#171717"/>
<path d="M800 103.964C800.619 103.454 801.055 102.618 801.055 101.6C801.055 100.582 800.619 99.7817 800 99.2727C799.309 98.6908 798.364 98.4727 796.764 98.4727H793.528V103.164V107.964H787.637V104.836H791.019V103.236H787.637V100.109C788.073 100.109 791.819 100.109 791.819 100.109V98.509C790.691 98.509 785.709 98.509 785.709 98.509V109.6H795.455V104.836H796.4C797.273 106.218 799.164 109.564 799.164 109.564H801.455L798.473 104.691C799.128 104.545 799.6 104.291 800 103.964ZM795.491 103.2V100.073H797.128C798.582 100.073 799.164 100.654 799.164 101.6C799.164 102.654 798.582 103.164 797.128 103.164H795.491V103.2Z" fill="#171717"/>
<path d="M769.6 103.964C770.219 103.454 770.655 102.618 770.655 101.6C770.655 100.582 770.219 99.7817 769.6 99.2727C768.946 98.6908 767.964 98.4727 766.364 98.4727H763.128V103.164V107.964H757.237V104.836H760.619V103.236H757.237V100.109C757.673 100.109 761.419 100.109 761.419 100.109V98.509C760.291 98.509 755.31 98.509 755.31 98.509V109.6H765.055V104.836H766C766.873 106.218 768.764 109.564 768.764 109.564H771.055L768.073 104.691C768.764 104.545 769.237 104.291 769.6 103.964ZM765.091 103.2V100.073H766.728C768.182 100.073 768.764 100.654 768.764 101.6C768.764 102.654 768.182 103.164 766.728 103.164H765.091V103.2Z" fill="#171717"/>
<path d="M783.528 99.309C782.837 98.7272 781.891 98.4727 780.291 98.4727H777.055V109.564H778.982V104.982H780.291C781.891 104.982 782.837 104.691 783.491 104.109C784.109 103.6 784.546 102.727 784.546 101.709C784.546 100.691 784.109 99.8181 783.528 99.309ZM780.619 103.345H778.982V100.073H780.619C782.073 100.073 782.655 100.727 782.655 101.673C782.655 102.691 782 103.345 780.619 103.345Z" fill="#171717"/>
<path d="M751.237 103.091C749.709 102.545 749.019 102.109 749.019 101.236C749.019 100.582 749.709 99.818 751.019 99.818C752 99.818 752.946 100.145 753.419 100.4V98.7999C752.909 98.5453 752 98.2908 751.055 98.2908C748.655 98.2908 747.019 99.6362 747.019 101.418C747.019 103.018 748.255 104 750.109 104.618C751.564 105.127 752.182 105.636 752.182 106.509C752.182 107.454 751.382 108.109 750.037 108.109C748.982 108.109 747.673 107.745 746.982 107.309V109.018C747.637 109.382 748.8 109.673 749.891 109.673C752.764 109.673 754.146 108.145 754.146 106.363C754.182 104.727 753.164 103.782 751.237 103.091Z" fill="#171717"/>
<path d="M870.473 107.563C870.473 106.509 871.273 105.709 872.328 105.709C873.346 105.709 874.146 106.509 874.146 107.563C874.146 108.654 873.346 109.418 872.328 109.418C871.31 109.454 870.473 108.654 870.473 107.563ZM872.328 109.818C873.564 109.818 874.619 108.872 874.619 107.563C874.619 106.291 873.564 105.309 872.328 105.309C871.091 105.309 870.037 106.254 870.037 107.563C870.037 108.872 871.091 109.818 872.328 109.818ZM871.855 107.745H872.291L872.982 108.872H873.419L872.691 107.745C873.091 107.709 873.382 107.491 873.382 107.018C873.382 106.509 873.091 106.291 872.473 106.291H871.491V108.872H871.891V107.745H871.855ZM871.855 107.418V106.618H872.401C872.691 106.618 872.982 106.691 872.982 106.982C872.982 107.382 872.691 107.418 872.364 107.418H871.855Z" fill="#171717"/>
<rect width="204" height="72" transform="translate(912 64)" fill="#FAFAFA"/>
<g clip-path="url(#clip1_115_507)">
<path d="M962.855 102.808H968.687V113.35H957.36L962.855 102.808Z" fill="#171717"/>
<path d="M968.172 91.4812L974.07 103.145L968.687 113.35L959.042 96.7522L968.172 91.4812Z" fill="#171717"/>
<path d="M982.818 91.4812L975.248 100.125V82.8372L982.818 91.4812Z" fill="#171717"/>
<path d="M962.799 86.2102H975.304V96.7523H959.042L962.799 86.2102Z" fill="#171717"/>
<path d="M1004.36 94.0609C1004.32 93.9321 1004.26 93.8168 1004.19 93.7149C1004.13 93.6116 1004.05 93.5237 1003.95 93.451C1003.86 93.3784 1003.75 93.3229 1003.63 93.2848C1003.52 93.2466 1003.39 93.2274 1003.24 93.2274C1003.01 93.2274 1002.8 93.2873 1002.61 93.407C1002.42 93.5269 1002.27 93.7033 1002.16 93.9366C1002.05 94.1699 1001.99 94.456 1001.99 94.7949C1001.99 95.1339 1002.05 95.42 1002.16 95.6533C1002.27 95.8864 1002.43 96.063 1002.62 96.1827C1002.81 96.3026 1003.03 96.3625 1003.27 96.3625C1003.5 96.3625 1003.7 96.3147 1003.87 96.2191C1004.04 96.1223 1004.17 95.9859 1004.27 95.8101C1004.37 95.6329 1004.41 95.4245 1004.41 95.1849L1004.56 95.2154H1003.38V94.7949H1004.87V95.2154C1004.87 95.5379 1004.8 95.8183 1004.67 96.0566C1004.53 96.2949 1004.34 96.4797 1004.1 96.611C1003.86 96.741 1003.59 96.806 1003.27 96.806C1002.93 96.806 1002.62 96.7244 1002.36 96.5612C1002.1 96.3982 1001.9 96.1663 1001.75 95.8655C1001.6 95.5647 1001.53 95.2078 1001.53 94.7949C1001.53 94.4852 1001.57 94.2068 1001.66 93.9596C1001.74 93.7111 1001.86 93.4995 1002.01 93.3249C1002.16 93.1503 1002.35 93.0165 1002.55 92.9234C1002.76 92.8304 1002.99 92.7839 1003.24 92.7839C1003.45 92.7839 1003.64 92.8151 1003.82 92.8776C1004 92.9387 1004.16 93.0261 1004.3 93.1394C1004.44 93.2516 1004.56 93.3861 1004.66 93.5429C1004.75 93.6983 1004.81 93.871 1004.85 94.0609H1004.36ZM1006.56 96.7525H1006.06L1007.5 92.8374H1007.99L1009.43 96.7525H1008.93L1007.76 93.4568H1007.73L1006.56 96.7525ZM1006.74 95.2232H1008.75V95.6437H1006.74V95.2232ZM1010.87 92.8374H1011.44L1012.77 96.0872H1012.81L1014.14 92.8374H1014.71V96.7525H1014.27V93.7779H1014.23L1013 96.7525H1012.58L1011.35 93.7779H1011.31V96.7525H1010.87V92.8374ZM1016.49 96.7525V92.8374H1018.86V93.258H1016.97V94.5808H1018.73V95.0014H1016.97V96.3319H1018.89V96.7525H1016.49ZM1020.55 96.7525V92.8374H1021.87C1022.18 92.8374 1022.43 92.8928 1022.62 93.0037C1022.82 93.1133 1022.96 93.2618 1023.06 93.4491C1023.15 93.6365 1023.2 93.8455 1023.2 94.0761C1023.2 94.3068 1023.15 94.5164 1023.06 94.7051C1022.96 94.8937 1022.82 95.0441 1022.63 95.1562C1022.43 95.2672 1022.18 95.3226 1021.88 95.3226H1020.93V94.902H1021.86C1022.07 94.902 1022.24 94.8657 1022.37 94.793C1022.5 94.7204 1022.59 94.6223 1022.64 94.4986C1022.7 94.3738 1022.73 94.2329 1022.73 94.0761C1022.73 93.9194 1022.7 93.7793 1022.64 93.6556C1022.59 93.532 1022.49 93.4351 1022.37 93.365C1022.24 93.2937 1022.07 93.258 1021.85 93.258H1021.02V96.7525H1020.55ZM1024.8 96.7525V92.8374H1025.27V96.3319H1027.09V96.7525H1024.8ZM1029.07 96.7525H1028.57L1030.01 92.8374H1030.5L1031.93 96.7525H1031.44L1030.27 93.4568H1030.24L1029.07 96.7525ZM1029.25 95.2232H1031.25V95.6437H1029.25V95.2232ZM1032.64 92.8374H1033.19L1034.27 94.6649H1034.32L1035.4 92.8374H1035.95L1034.53 95.1391V96.7525H1034.06V95.1391L1032.64 92.8374ZM1039.74 96.7525V92.8374H1042.11V93.258H1040.22V94.5808H1041.98V95.0014H1040.22V96.3319H1042.14V96.7525H1039.74ZM1043.79 96.7525V92.8374H1044.27V96.3319H1046.09V96.7525H1043.79ZM1047.66 96.7525V92.8374H1050.02V93.258H1048.13V94.5808H1049.9V95.0014H1048.13V96.3319H1050.05V96.7525H1047.66ZM1051.87 92.8374L1053.03 96.1331H1053.08L1054.24 92.8374H1054.74L1053.3 96.7525H1052.81L1051.37 92.8374H1051.87ZM1056 96.7525H1055.51L1056.95 92.8374H1057.43L1058.87 96.7525H1058.38L1057.21 93.4568H1057.17L1056 96.7525ZM1056.19 95.2232H1058.19V95.6437H1056.19V95.2232ZM1059.64 93.258V92.8374H1062.58V93.258H1061.35V96.7525H1060.88V93.258H1059.64ZM1064.15 96.7525V92.8374H1066.51V93.258H1064.62V94.5808H1066.39V95.0014H1064.62V96.3319H1066.54V96.7525H1064.15ZM1069.41 96.7525H1068.2V92.8374H1069.46C1069.84 92.8374 1070.17 92.9158 1070.44 93.0726C1070.71 93.228 1070.91 93.4517 1071.06 93.7435C1071.2 94.0341 1071.27 94.3821 1071.27 94.7873C1071.27 95.1952 1071.2 95.5462 1071.05 95.8406C1070.91 96.1337 1070.7 96.3593 1070.42 96.5173C1070.14 96.6741 1069.8 96.7525 1069.41 96.7525ZM1068.67 96.3319H1069.38C1069.7 96.3319 1069.97 96.2694 1070.18 96.1446C1070.39 96.0197 1070.55 95.8419 1070.66 95.6112C1070.76 95.3805 1070.81 95.1059 1070.81 94.7873C1070.81 94.4712 1070.76 94.1992 1070.66 93.971C1070.56 93.7416 1070.4 93.5657 1070.2 93.4434C1069.99 93.3198 1069.74 93.258 1069.43 93.258H1068.67V96.3319Z" fill="#171717"/>
<path d="M978.03 113.35C977.566 113.35 977.138 113.235 976.744 113.003C976.35 112.771 976.037 112.458 975.805 112.064C975.573 111.67 975.457 111.241 975.457 110.778V109.613H978.152V110.639H985.244V108.448H978.03C977.566 108.448 977.138 108.333 976.744 108.101C976.35 107.869 976.037 107.562 975.805 107.179C975.573 106.785 975.457 106.351 975.457 105.876V103.407C975.457 102.932 975.573 102.503 975.805 102.121C976.037 101.727 976.35 101.414 976.744 101.182C977.138 100.95 977.566 100.835 978.03 100.835H985.4C985.864 100.835 986.287 100.95 986.669 101.182C987.063 101.414 987.376 101.727 987.608 102.121C987.851 102.503 987.973 102.932 987.973 103.407V104.572H985.244V103.546H978.152V105.737H985.4C985.864 105.737 986.287 105.852 986.669 106.084C987.063 106.316 987.376 106.629 987.608 107.023C987.851 107.405 987.973 107.834 987.973 108.309V110.778C987.973 111.241 987.851 111.67 987.608 112.064C987.376 112.458 987.063 112.771 986.669 113.003C986.287 113.235 985.864 113.35 985.4 113.35H978.03ZM992.373 113.35C991.898 113.35 991.464 113.235 991.07 113.003C990.687 112.771 990.38 112.464 990.148 112.081C989.916 111.687 989.801 111.253 989.801 110.778V103.407C989.801 102.932 989.916 102.503 990.148 102.121C990.38 101.727 990.687 101.414 991.07 101.182C991.464 100.95 991.898 100.835 992.373 100.835H1002.28V103.546H993.069C992.883 103.546 992.738 103.593 992.634 103.685C992.541 103.778 992.495 103.923 992.495 104.12V110.065C992.495 110.25 992.541 110.395 992.634 110.5C992.738 110.592 992.883 110.639 993.069 110.639H1002.28V113.35H992.373ZM1004.04 113.35V103.407C1004.04 102.932 1004.16 102.503 1004.39 102.121C1004.62 101.727 1004.93 101.414 1005.33 101.182C1005.72 100.95 1006.15 100.835 1006.61 100.835H1013.97C1014.44 100.835 1014.87 100.95 1015.25 101.182C1015.65 101.414 1015.96 101.727 1016.19 102.121C1016.44 102.503 1016.56 102.932 1016.56 103.407V113.35H1013.83V109.318H1006.74V113.35H1004.04ZM1006.74 106.606H1013.83V103.546H1006.74V106.606ZM1028.17 113.35L1024.54 109.022H1028.06L1030.95 112.429V113.35H1028.17ZM1018.45 113.35V100.852H1028.38C1028.85 100.852 1029.28 100.968 1029.66 101.2C1030.06 101.431 1030.37 101.744 1030.6 102.138C1030.85 102.532 1030.97 102.961 1030.97 103.425V106.658C1030.97 107.121 1030.85 107.55 1030.6 107.944C1030.37 108.338 1030.06 108.651 1029.66 108.883C1029.28 109.115 1028.85 109.231 1028.38 109.231L1021.15 109.248V113.35H1018.45ZM1021.15 106.519H1028.24V103.546H1021.15V106.519ZM1032.73 113.35V100.817H1035.42V110.639H1045.24V113.35H1032.73ZM1046.2 113.35V100.835H1057.76V103.546H1048.93V105.737H1056.04V108.448H1048.93V110.639H1057.76V113.35H1046.2ZM1063.67 113.35V103.546H1058.77V100.835H1071.28V103.546H1066.38V113.35H1063.67Z" fill="#171717"/>
<path d="M975.457 109.613V109.277H975.121V109.613H975.457ZM978.152 109.613H978.488V109.277H978.152V109.613ZM978.152 110.639H977.815V110.975H978.152V110.639ZM985.244 110.639V110.975H985.58V110.639H985.244ZM985.244 108.448H985.58V108.112H985.244V108.448ZM975.805 107.179L975.515 107.35L975.516 107.352L975.517 107.354L975.805 107.179ZM975.805 102.121L976.093 102.295L976.094 102.293L976.095 102.291L975.805 102.121ZM986.669 101.182L986.495 101.47L986.497 101.471L986.499 101.472L986.669 101.182ZM987.608 102.121L987.318 102.291L987.321 102.297L987.324 102.302L987.608 102.121ZM987.973 104.572V104.908H988.31V104.572H987.973ZM985.244 104.572H984.908V104.908H985.244V104.572ZM985.244 103.546H985.58V103.21H985.244V103.546ZM978.152 103.546V103.21H977.815V103.546H978.152ZM978.152 105.737H977.815V106.073H978.152V105.737ZM986.669 106.084L986.495 106.372L986.497 106.373L986.499 106.374L986.669 106.084ZM987.608 107.023L987.318 107.194L987.321 107.199L987.324 107.204L987.608 107.023ZM987.608 112.064L987.322 111.887L987.32 111.89L987.318 111.893L987.608 112.064ZM986.669 113.003L986.499 112.713L986.497 112.714L986.495 112.715L986.669 113.003ZM978.03 113.014C977.626 113.014 977.256 112.914 976.914 112.713L976.573 113.293C977.02 113.555 977.507 113.687 978.03 113.687V113.014ZM976.914 112.713C976.569 112.51 976.298 112.238 976.095 111.893L975.515 112.235C975.776 112.678 976.13 113.032 976.573 113.293L976.914 112.713ZM976.095 111.893C975.894 111.552 975.794 111.182 975.794 110.778H975.121C975.121 111.3 975.252 111.788 975.515 112.235L976.095 111.893ZM975.794 110.778V109.613H975.121V110.778H975.794ZM975.457 109.949H978.152V109.277H975.457V109.949ZM977.815 109.613V110.639H978.488V109.613H977.815ZM978.152 110.975H985.244V110.302H978.152V110.975ZM985.58 110.639V108.448H984.908V110.639H985.58ZM985.244 108.112H978.03V108.785H985.244V108.112ZM978.03 108.112C977.626 108.112 977.256 108.012 976.914 107.811L976.573 108.391C977.02 108.653 977.507 108.785 978.03 108.785V108.112ZM976.914 107.811C976.567 107.607 976.295 107.339 976.093 107.005L975.517 107.354C975.778 107.785 976.132 108.131 976.573 108.391L976.914 107.811ZM976.095 107.009C975.895 106.669 975.794 106.293 975.794 105.876H975.121C975.121 106.408 975.252 106.902 975.515 107.35L976.095 107.009ZM975.794 105.876V103.407H975.121V105.876H975.794ZM975.794 103.407C975.794 102.99 975.895 102.622 976.093 102.295L975.517 101.947C975.252 102.385 975.121 102.875 975.121 103.407H975.794ZM976.095 102.291C976.298 101.947 976.569 101.675 976.914 101.472L976.573 100.892C976.13 101.153 975.776 101.507 975.515 101.95L976.095 102.291ZM976.914 101.472C977.256 101.271 977.626 101.171 978.03 101.171V100.498C977.507 100.498 977.02 100.63 976.573 100.892L976.914 101.472ZM978.03 101.171H985.4V100.498H978.03V101.171ZM985.4 101.171C985.805 101.171 986.167 101.271 986.495 101.47L986.844 100.894C986.407 100.63 985.923 100.498 985.4 100.498V101.171ZM986.499 101.472C986.844 101.675 987.115 101.947 987.318 102.291L987.898 101.95C987.637 101.507 987.283 101.153 986.84 100.892L986.499 101.472ZM987.324 102.302C987.532 102.627 987.637 102.993 987.637 103.407H988.31C988.31 102.871 988.171 102.379 987.892 101.94L987.324 102.302ZM987.637 103.407V104.572H988.31V103.407H987.637ZM987.973 104.235H985.244V104.908H987.973V104.235ZM985.58 104.572V103.546H984.908V104.572H985.58ZM985.244 103.21H978.152V103.883H985.244V103.21ZM977.815 103.546V105.737H978.488V103.546H977.815ZM978.152 106.073H985.4V105.4H978.152V106.073ZM985.4 106.073C985.805 106.073 986.167 106.173 986.495 106.372L986.844 105.796C986.407 105.532 985.923 105.4 985.4 105.4V106.073ZM986.499 106.374C986.844 106.577 987.115 106.849 987.318 107.194L987.898 106.852C987.637 106.409 987.283 106.055 986.84 105.794L986.499 106.374ZM987.324 107.204C987.532 107.529 987.637 107.895 987.637 108.309H988.31C988.31 107.773 988.171 107.281 987.892 106.842L987.324 107.204ZM987.637 108.309V110.778H988.31V108.309H987.637ZM987.637 110.778C987.637 111.179 987.532 111.546 987.322 111.887L987.894 112.241C988.171 111.794 988.31 111.304 988.31 110.778H987.637ZM987.318 111.893C987.115 112.238 986.844 112.51 986.499 112.713L986.84 113.293C987.283 113.032 987.637 112.678 987.898 112.235L987.318 111.893ZM986.495 112.715C986.167 112.914 985.805 113.014 985.4 113.014V113.687C985.923 113.687 986.407 113.555 986.844 113.291L986.495 112.715ZM985.4 113.014H978.03V113.687H985.4V113.014ZM991.07 113.003L990.895 113.291L990.897 113.292L990.899 113.293L991.07 113.003ZM990.148 112.081L989.858 112.252L989.859 112.254L989.861 112.256L990.148 112.081ZM990.148 102.121L990.436 102.295L990.437 102.293L990.438 102.291L990.148 102.121ZM991.07 101.182L990.899 100.892L990.897 100.893L990.895 100.894L991.07 101.182ZM1002.28 100.835H1002.62V100.498H1002.28V100.835ZM1002.28 103.546V103.883H1002.62V103.546H1002.28ZM992.634 103.685L992.41 103.434L992.403 103.44L992.396 103.448L992.634 103.685ZM992.634 110.5L992.383 110.723L992.396 110.738L992.41 110.751L992.634 110.5ZM1002.28 110.639H1002.62V110.302H1002.28V110.639ZM1002.28 113.35V113.687H1002.62V113.35H1002.28ZM992.373 113.014C991.956 113.014 991.58 112.913 991.24 112.713L990.899 113.293C991.347 113.556 991.841 113.687 992.373 113.687V113.014ZM991.244 112.715C990.908 112.511 990.64 112.243 990.436 111.907L989.861 112.256C990.12 112.685 990.466 113.031 990.895 113.291L991.244 112.715ZM990.438 111.911C990.238 111.571 990.137 111.195 990.137 110.778H989.464C989.464 111.31 989.595 111.804 989.858 112.252L990.438 111.911ZM990.137 110.778V103.407H989.464V110.778H990.137ZM990.137 103.407C990.137 102.99 990.238 102.622 990.436 102.295L989.861 101.947C989.595 102.385 989.464 102.875 989.464 103.407H990.137ZM990.438 102.291C990.642 101.944 990.91 101.672 991.244 101.47L990.895 100.894C990.464 101.156 990.118 101.509 989.858 101.95L990.438 102.291ZM991.24 101.472C991.58 101.272 991.956 101.171 992.373 101.171V100.498C991.841 100.498 991.347 100.629 990.899 100.892L991.24 101.472ZM992.373 101.171H1002.28V100.498H992.373V101.171ZM1001.95 100.835V103.546H1002.62V100.835H1001.95ZM1002.28 103.21H993.069V103.883H1002.28V103.21ZM993.069 103.21C992.828 103.21 992.594 103.271 992.41 103.434L992.858 103.937C992.882 103.915 992.938 103.883 993.069 103.883V103.21ZM992.396 103.448C992.215 103.629 992.158 103.878 992.158 104.12H992.831C992.831 103.968 992.868 103.927 992.872 103.923L992.396 103.448ZM992.158 104.12V110.065H992.831V104.12H992.158ZM992.158 110.065C992.158 110.305 992.219 110.539 992.383 110.723L992.886 110.276C992.863 110.251 992.831 110.196 992.831 110.065H992.158ZM992.41 110.751C992.594 110.914 992.828 110.975 993.069 110.975V110.302C992.938 110.302 992.882 110.27 992.858 110.248L992.41 110.751ZM993.069 110.975H1002.28V110.302H993.069V110.975ZM1001.95 110.639V113.35H1002.62V110.639H1001.95ZM1002.28 113.014H992.373V113.687H1002.28V113.014ZM1004.04 113.35H1003.71V113.687H1004.04V113.35ZM1004.39 102.121L1004.68 102.295L1004.68 102.293L1004.68 102.291L1004.39 102.121ZM1015.25 101.182L1015.08 101.47L1015.08 101.471L1015.08 101.472L1015.25 101.182ZM1016.19 102.121L1015.9 102.291L1015.91 102.297L1015.91 102.302L1016.19 102.121ZM1016.56 113.35V113.687H1016.89V113.35H1016.56ZM1013.83 113.35H1013.49V113.687H1013.83V113.35ZM1013.83 109.318H1014.17V108.981H1013.83V109.318ZM1006.74 109.318V108.981H1006.4V109.318H1006.74ZM1006.74 113.35V113.687H1007.07V113.35H1006.74ZM1006.74 106.606H1006.4V106.942H1006.74V106.606ZM1013.83 106.606V106.942H1014.17V106.606H1013.83ZM1013.83 103.546H1014.17V103.21H1013.83V103.546ZM1006.74 103.546V103.21H1006.4V103.546H1006.74ZM1004.38 113.35V103.407H1003.71V113.35H1004.38ZM1004.38 103.407C1004.38 102.99 1004.48 102.622 1004.68 102.295L1004.1 101.947C1003.84 102.385 1003.71 102.875 1003.71 103.407H1004.38ZM1004.68 102.291C1004.88 101.947 1005.15 101.675 1005.5 101.472L1005.16 100.892C1004.71 101.153 1004.36 101.507 1004.1 101.95L1004.68 102.291ZM1005.5 101.472C1005.84 101.271 1006.21 101.171 1006.61 101.171V100.498C1006.09 100.498 1005.6 100.63 1005.16 100.892L1005.5 101.472ZM1006.61 101.171H1013.97V100.498H1006.61V101.171ZM1013.97 101.171C1014.39 101.171 1014.75 101.272 1015.08 101.47L1015.43 100.894C1014.99 100.629 1014.5 100.498 1013.97 100.498V101.171ZM1015.08 101.472C1015.43 101.675 1015.7 101.947 1015.9 102.291L1016.48 101.95C1016.22 101.507 1015.87 101.153 1015.42 100.892L1015.08 101.472ZM1015.91 102.302C1016.12 102.627 1016.22 102.993 1016.22 103.407H1016.89C1016.89 102.871 1016.76 102.379 1016.48 101.94L1015.91 102.302ZM1016.22 103.407V113.35H1016.89V103.407H1016.22ZM1016.56 113.014H1013.83V113.687H1016.56V113.014ZM1014.17 113.35V109.318H1013.49V113.35H1014.17ZM1013.83 108.981H1006.74V109.654H1013.83V108.981ZM1006.4 109.318V113.35H1007.07V109.318H1006.4ZM1006.74 113.014H1004.04V113.687H1006.74V113.014ZM1006.74 106.942H1013.83V106.269H1006.74V106.942ZM1014.17 106.606V103.546H1013.49V106.606H1014.17ZM1013.83 103.21H1006.74V103.883H1013.83V103.21ZM1006.4 103.546V106.606H1007.07V103.546H1006.4ZM1028.17 113.35L1027.91 113.567L1028.01 113.687H1028.17V113.35ZM1024.54 109.022V108.686H1023.81L1024.28 109.238L1024.54 109.022ZM1028.06 109.022L1028.32 108.805L1028.22 108.686H1028.06V109.022ZM1030.95 112.429H1031.29V112.306L1031.21 112.212L1030.95 112.429ZM1030.95 113.35V113.687H1031.29V113.35H1030.95ZM1018.45 113.35H1018.12V113.687H1018.45V113.35ZM1018.45 100.852V100.515H1018.12V100.852H1018.45ZM1029.66 101.2L1029.49 101.487L1029.49 101.488L1029.49 101.49L1029.66 101.2ZM1030.6 102.138L1030.31 102.309L1030.31 102.312L1030.32 102.315L1030.6 102.138ZM1030.6 107.944L1030.32 107.768L1030.31 107.771L1030.31 107.774L1030.6 107.944ZM1029.66 108.883L1029.49 108.593L1029.49 108.594L1029.49 108.595L1029.66 108.883ZM1028.38 109.231V108.894H1028.38L1028.38 109.231ZM1021.15 109.248L1021.15 108.912L1020.81 108.912V109.248H1021.15ZM1021.15 113.35V113.687H1021.48V113.35H1021.15ZM1021.15 106.519H1020.81V106.855H1021.15V106.519ZM1028.24 106.519V106.855H1028.57V106.519H1028.24ZM1028.24 103.546H1028.57V103.21H1028.24V103.546ZM1021.15 103.546V103.21H1020.81V103.546H1021.15ZM1028.43 113.134L1024.79 108.806L1024.28 109.238L1027.91 113.567L1028.43 113.134ZM1024.54 109.358H1028.06V108.686H1024.54V109.358ZM1027.81 109.239L1030.69 112.647L1031.21 112.212L1028.32 108.805L1027.81 109.239ZM1030.61 112.429V113.35H1031.29V112.429H1030.61ZM1030.95 113.014H1028.17V113.687H1030.95V113.014ZM1018.79 113.35V100.852H1018.12V113.35H1018.79ZM1018.45 101.188H1028.38V100.515H1018.45V101.188ZM1028.38 101.188C1028.8 101.188 1029.16 101.289 1029.49 101.487L1029.84 100.912C1029.4 100.646 1028.91 100.515 1028.38 100.515V101.188ZM1029.49 101.49C1029.84 101.692 1030.11 101.964 1030.31 102.309L1030.89 101.968C1030.63 101.524 1030.28 101.17 1029.83 100.91L1029.49 101.49ZM1030.32 102.315C1030.53 102.656 1030.63 103.023 1030.63 103.425H1031.3C1031.3 102.899 1031.16 102.409 1030.89 101.962L1030.32 102.315ZM1030.63 103.425V106.658H1031.3V103.425H1030.63ZM1030.63 106.658C1030.63 107.059 1030.53 107.427 1030.32 107.768L1030.89 108.121C1031.16 107.674 1031.3 107.184 1031.3 106.658H1030.63ZM1030.31 107.774C1030.11 108.118 1029.84 108.39 1029.49 108.593L1029.83 109.173C1030.28 108.912 1030.63 108.558 1030.89 108.115L1030.31 107.774ZM1029.49 108.595C1029.16 108.793 1028.8 108.894 1028.38 108.894V109.567C1028.91 109.567 1029.4 109.436 1029.84 109.171L1029.49 108.595ZM1028.38 108.894L1021.15 108.912L1021.15 109.584L1028.38 109.567L1028.38 108.894ZM1020.81 109.248V113.35H1021.48V109.248H1020.81ZM1021.15 113.014H1018.45V113.687H1021.15V113.014ZM1021.15 106.855H1028.24V106.182H1021.15V106.855ZM1028.57 106.519V103.546H1027.9V106.519H1028.57ZM1028.24 103.21H1021.15V103.883H1028.24V103.21ZM1020.81 103.546V106.519H1021.48V103.546H1020.81ZM1032.73 113.35H1032.39V113.687H1032.73V113.35ZM1032.73 100.817V100.481H1032.39V100.817H1032.73ZM1035.42 100.817H1035.76V100.481H1035.42V100.817ZM1035.42 110.639H1035.08V110.975H1035.42V110.639ZM1045.24 110.639H1045.58V110.302H1045.24V110.639ZM1045.24 113.35V113.687H1045.58V113.35H1045.24ZM1033.06 113.35V100.817H1032.39V113.35H1033.06ZM1032.73 101.154H1035.42V100.481H1032.73V101.154ZM1035.08 100.817V110.639H1035.76V100.817H1035.08ZM1035.42 110.975H1045.24V110.302H1035.42V110.975ZM1044.91 110.639V113.35H1045.58V110.639H1044.91ZM1045.24 113.014H1032.73V113.687H1045.24V113.014ZM1046.2 113.35H1045.87V113.687H1046.2V113.35ZM1046.2 100.835V100.498H1045.87V100.835H1046.2ZM1057.76 100.835H1058.1V100.498H1057.76V100.835ZM1057.76 103.546V103.883H1058.1V103.546H1057.76ZM1048.93 103.546V103.21H1048.6V103.546H1048.93ZM1048.93 105.737H1048.6V106.073H1048.93V105.737ZM1056.04 105.737H1056.38V105.4H1056.04V105.737ZM1056.04 108.448V108.785H1056.38V108.448H1056.04ZM1048.93 108.448V108.112H1048.6V108.448H1048.93ZM1048.93 110.639H1048.6V110.975H1048.93V110.639ZM1057.76 110.639H1058.1V110.302H1057.76V110.639ZM1057.76 113.35V113.687H1058.1V113.35H1057.76ZM1046.54 113.35V100.835H1045.87V113.35H1046.54ZM1046.2 101.171H1057.76V100.498H1046.2V101.171ZM1057.43 100.835V103.546H1058.1V100.835H1057.43ZM1057.76 103.21H1048.93V103.883H1057.76V103.21ZM1048.6 103.546V105.737H1049.27V103.546H1048.6ZM1048.93 106.073H1056.04V105.4H1048.93V106.073ZM1055.71 105.737V108.448H1056.38V105.737H1055.71ZM1056.04 108.112H1048.93V108.785H1056.04V108.112ZM1048.6 108.448V110.639H1049.27V108.448H1048.6ZM1048.93 110.975H1057.76V110.302H1048.93V110.975ZM1057.43 110.639V113.35H1058.1V110.639H1057.43ZM1057.76 113.014H1046.2V113.687H1057.76V113.014ZM1063.67 113.35H1063.33V113.687H1063.67V113.35ZM1063.67 103.546H1064V103.21H1063.67V103.546ZM1058.77 103.546H1058.43V103.883H1058.77V103.546ZM1058.77 100.835V100.498H1058.43V100.835H1058.77ZM1071.28 100.835H1071.62V100.498H1071.28V100.835ZM1071.28 103.546V103.883H1071.62V103.546H1071.28ZM1066.38 103.546V103.21H1066.04V103.546H1066.38ZM1066.38 113.35V113.687H1066.72V113.35H1066.38ZM1064 113.35V103.546H1063.33V113.35H1064ZM1063.67 103.21H1058.77V103.883H1063.67V103.21ZM1059.1 103.546V100.835H1058.43V103.546H1059.1ZM1058.77 101.171H1071.28V100.498H1058.77V101.171ZM1070.94 100.835V103.546H1071.62V100.835H1070.94ZM1071.28 103.21H1066.38V103.883H1071.28V103.21ZM1066.04 103.546V113.35H1066.72V103.546H1066.04ZM1066.38 113.014H1063.67V113.687H1066.38V113.014Z" fill="#171717"/>
</g>
<rect width="204" height="72" transform="translate(1140 64)" fill="#FAFAFA"/>
<path fill-rule="evenodd" clip-rule="evenodd" d="M1279.49 109.519L1274.81 101.339C1276.89 100.35 1278.21 98.2651 1278.21 95.9756C1278.21 92.6841 1275.52 90.0063 1272.21 90.0063H1262.2V109.518H1266.65V101.945H1270.2L1274.53 109.519H1279.49ZM1266.58 98.1779V93.7819H1271.38L1271.36 93.7894C1272.82 93.8676 1273.75 94.7108 1273.75 95.9843C1273.75 97.2439 1272.75 98.1265 1271.27 98.1791H1266.58L1266.58 98.1779ZM1244.01 109.519V90.006H1258.65V93.729H1248.58V97.6327H1257.41V101.439H1248.58V105.601H1259.15V109.519H1244.01L1244.01 109.519ZM1223.13 109.519L1218.44 101.339C1220.52 100.35 1221.84 98.2648 1221.84 95.9756C1221.84 92.6841 1219.15 90.0063 1215.84 90.0063H1205.83V109.518H1210.28V101.945H1213.83L1218.16 109.519H1223.13ZM1210.21 98.1779V93.7819H1215.01L1214.99 93.7894C1216.45 93.8676 1217.38 94.7108 1217.38 95.9843C1217.38 97.2439 1216.39 98.1265 1214.9 98.1791H1210.21V98.1779ZM1193.96 110C1199.32 110 1202.52 106.932 1202.52 101.795V90.0201H1197.95V101.49C1197.95 104.268 1196.49 105.861 1193.96 105.861H1193.96C1191.43 105.861 1189.97 104.268 1189.97 101.49V90.0201H1185.4V101.795C1185.4 106.932 1188.6 110 1193.96 110H1193.96L1193.96 110ZM1179.42 98.7116C1182.06 99.6077 1183.34 101.843 1183.34 103.999C1183.34 107.036 1180.87 109.509 1177.82 109.519H1167V90.0042H1176.96C1179.56 90.0283 1181.65 92.1272 1181.65 94.7102C1181.66 96.3394 1180.81 97.854 1179.42 98.7107V98.7113V98.7116ZM1171.49 105.878H1176.49C1178.06 105.878 1178.88 104.71 1178.88 103.557C1178.88 102.627 1178.14 101.318 1176.49 101.318H1171.49V105.878ZM1175.15 97.6784C1176.3 97.6784 1177.21 96.7929 1177.21 95.6619C1177.21 94.5686 1176.26 93.6454 1175.15 93.6454H1171.49V97.6781H1175.15L1175.15 97.6784ZM1237.61 98.7038C1240.25 99.5987 1241.53 101.834 1241.53 103.989C1241.53 107.026 1239.06 109.496 1236.01 109.507L1225.2 109.506V90.0003L1235.16 90C1237.75 90.0244 1239.84 92.123 1239.84 94.7051C1239.85 96.3337 1239 97.8474 1237.61 98.7032L1237.61 98.7038ZM1229.69 105.867H1234.68C1236.26 105.867 1237.08 104.7 1237.08 103.547C1237.08 102.618 1236.33 101.309 1234.68 101.309H1229.69V105.867ZM1233.35 97.6712C1234.5 97.6712 1235.4 96.7859 1235.4 95.6556C1235.4 94.5629 1234.46 93.64 1233.35 93.64H1229.69V97.6712H1233.35ZM1298.87 109.519L1294.19 101.339C1296.27 100.35 1297.59 98.2648 1297.59 95.9756C1297.59 92.6841 1294.9 90.0063 1291.59 90.0063H1281.58V109.518H1286.03V101.945H1289.58L1293.91 109.519H1298.88H1298.87ZM1285.96 98.1779V93.7819H1290.76L1290.74 93.7894C1292.2 93.8676 1293.13 94.7108 1293.13 95.9843C1293.13 97.2439 1292.14 98.1265 1290.65 98.1791H1285.96V98.1779ZM1305.38 109.519V101.568L1297.61 90.006H1303.32L1307.79 96.7144L1312.29 90.006H1318L1310.21 101.568V109.519H1305.38H1305.38Z" fill="#171717"/>
<defs>
<clipPath id="clip0_115_507">
<rect width="41.1588" height="36" fill="white" transform="translate(81 82)"/>
</clipPath>
<clipPath id="clip1_115_507">
<rect width="114.28" height="36" fill="white" transform="translate(957.359 81.5)"/>
</clipPath>
</defs>
</svg>
